# xmcd CD database file
#
# Track frame offsets:
#	183
#	59458
#	85258
#	164208
#	192658
#	273258
#
# Disc length: 4226 seconds
#
# Revision: 0
# Processed by: cddbd v1.5.2PL0 Copyright (c) Steve Scherf et al.
# Submitted via: CDex 1.70beta2
#
DISCID=58108006
DTITLE=Chet Baker - This Is Always
DYEAR=1900
DGENRE=Jazz
TTITLE0=A Night In Tunesia
TTITLE1=You Don't Know What Love Is
TTITLE2=Ray's Idea
TTITLE3=This Is Always
TTITLE4=Chekeetah
TTITLE5=Exitus
EXTD=
EXTT0=
EXTT1=
EXTT2=
EXTT3=
EXTT4=
EXTT5=
PLAYORDER=
